<svg width="64" height="64" viewBox="0 0 64 64" fill="none" xmlns="http://www.w3.org/2000/svg">
<path d="M43.4532 38.7391L34.4324 43.9612C33.1036 44.7211 31.9636 44.3412 31.9636 42.9168V30.8583C32.1536 29.244 33.1036 27.8196 34.4324 27.0607L43.4532 21.8387C44.782 21.0787 45.922 21.4587 45.922 22.8831V34.9415C45.6375 36.5559 44.782 37.8847 43.4532 38.7391Z" fill="#F47621"/>
<path d="M59.7844 29.0557L50.6692 34.3733C49.3404 35.1332 48.2004 34.7533 48.2004 33.3289V21.2704C48.3904 19.6561 49.3404 18.2317 50.6692 17.4728L59.69 12.2508C61.0188 11.4908 62.1588 11.8708 62.1588 13.2952V25.3536C61.9688 26.8725 61.1144 28.2968 59.7855 29.0568L59.7844 29.0557Z" fill="#F47621"/>
<path d="M17.8162 38.7391L26.837 43.9612C28.1658 44.7211 29.3058 44.3412 29.3058 42.9168V30.8583C29.1158 29.244 28.1658 27.8196 26.837 27.0607L17.8162 21.8387C16.4874 21.0787 15.3474 21.4587 15.3474 22.8831V34.9415C15.4419 36.5559 16.3918 37.9803 17.8162 38.7391Z" fill="#3A3B3A"/>
<path d="M17.8162 58.3947L26.837 63.6167C28.1658 64.3767 29.3058 63.9967 29.3058 62.5723V50.6083C29.1158 48.994 28.1658 47.5696 26.837 46.8107L17.8162 41.5887C16.4874 40.8287 15.3474 41.2087 15.3474 42.6331V54.5971C15.4419 56.2114 16.3918 57.6358 17.8162 58.3947Z" fill="#3A3B3A"/>
<path d="M42.5984 19.4652L32.8188 25.5416C31.4899 26.3016 29.78 26.3016 28.4512 25.5416L18.766 19.4652C18.006 19.1808 17.626 18.2308 18.006 17.4708C18.196 17.0909 18.4804 16.8064 18.766 16.7109L28.5456 10.6344C29.8744 9.87446 31.5844 9.87446 32.9132 10.6344L42.6928 16.7109C43.4528 17.1853 43.6428 18.1353 43.2628 18.8952C43.0728 19.0852 42.8828 19.3697 42.5984 19.4652Z" fill="#224087"/>
<path d="M26.7426 9.39964L16.9629 15.4761C15.6341 16.236 13.9242 16.236 12.5953 15.4761L2.90904 9.39964C2.14907 9.1152 1.76909 8.16525 2.14907 7.40528C2.24352 7.12084 2.52905 6.83531 2.90904 6.64531L12.6898 0.569975C14.0186 -0.189992 15.7285 -0.189992 17.0574 0.569975L26.837 6.64641C27.597 7.0264 27.8814 7.97526 27.5014 8.73522C27.3114 9.01966 27.027 9.3052 26.7415 9.39964H26.7426Z" fill="#224087"/>
</svg>
