<svg width="512" height="512" viewBox="0 0 512 512" fill="none" xmlns="http://www.w3.org/2000/svg">
<path d="M276.527 366.814H330.232V394.437M276.416 331.715H350.958M276.527 291.726H345.379V264.664M345.379 264.664C353.799 264.664 360.627 257.838 360.627 249.417C360.627 240.994 353.799 234.168 345.379 234.168C336.958 234.168 330.131 240.995 330.131 249.417C330.131 257.838 336.958 264.664 345.379 264.664ZM276.527 192.817H340.333M276.527 147.236H322.606V128.634M322.606 128.634C331.026 128.634 337.854 121.807 337.854 113.386C337.854 104.965 331.026 98.1379 322.606 98.1379C314.184 98.1379 307.358 104.965 307.358 113.386C307.358 121.807 314.184 128.634 322.606 128.634ZM235.472 366.814H181.767V394.437M235.584 331.715H161.042M235.472 291.726H166.621V264.664M166.621 264.664C158.2 264.664 151.372 257.838 151.372 249.417C151.372 240.994 158.2 234.168 166.621 234.168C175.042 234.168 181.869 240.995 181.869 249.417C181.869 257.838 175.042 264.664 166.621 264.664ZM235.472 192.817H171.667M235.472 147.236H189.393V128.634M189.393 128.634C180.973 128.634 174.146 121.807 174.146 113.386C174.146 104.965 180.973 98.1379 189.393 98.1379C197.815 98.1379 204.642 104.965 204.642 113.386C204.642 121.807 197.815 128.634 189.393 128.634ZM428.807 325.929C452.74 310.087 454.583 279.196 432.69 260.649C426.475 255.385 426.813 252.066 430.978 245.792C453.311 212.145 434.589 169.397 394.476 162.997C384.391 161.388 383.404 158.989 388.027 150.363C400.911 126.328 389.483 97.9456 363.696 92.0661C353.016 89.63 346.805 84.633 340.673 76.2406C323.697 53.003 300.228 45.1431 276.527 53.5439C276.527 86.6987 275.923 371.02 275.967 404.045C276.008 435.548 296.539 458.574 326.3 460.604C354.293 462.513 378.021 442.049 381.938 411.812C382.844 404.806 384.9 402.166 392.255 401.821C425.321 400.28 442.607 368.18 425.463 340.045C421.297 333.206 422.191 330.308 428.807 325.929ZM345.48 410.118C345.48 418.54 338.653 425.366 330.232 425.366C321.811 425.366 314.984 418.54 314.984 410.118C314.984 401.697 321.811 394.87 330.232 394.87C338.653 394.87 345.48 401.697 345.48 410.118ZM383.902 331.509C384.007 339.93 377.266 346.841 368.846 346.947C360.425 347.052 353.514 340.311 353.409 331.89C353.303 323.47 360.044 316.558 368.465 316.453C376.885 316.348 383.796 323.088 383.902 331.509ZM372.88 192.817C372.88 201.238 366.053 208.065 357.631 208.065C349.21 208.065 342.383 201.238 342.383 192.817C342.383 184.396 349.21 177.569 357.631 177.569C366.053 177.569 372.88 184.395 372.88 192.817ZM83.1917 325.929C59.2603 310.087 57.4175 279.196 79.3106 260.649C85.5254 255.385 85.1868 252.066 81.0212 245.792C58.6896 212.145 77.4104 169.397 117.523 162.997C127.608 161.388 128.596 158.989 123.971 150.363C111.09 126.328 122.516 97.9456 148.303 92.0661C158.983 89.63 165.194 84.633 171.326 76.2406C188.302 53.003 211.772 45.1431 235.472 53.5439C235.472 86.6987 236.076 371.02 236.033 404.045C235.991 435.548 215.461 458.574 185.699 460.604C157.706 462.513 133.978 442.049 130.062 411.812C129.155 404.806 127.099 402.166 119.744 401.821C86.6783 400.28 69.3927 368.18 86.5355 340.045C90.7028 333.206 89.8085 330.308 83.1917 325.929ZM166.519 410.118C166.519 418.54 173.346 425.366 181.767 425.366C190.188 425.366 197.015 418.54 197.015 410.118C197.015 401.697 190.188 394.87 181.767 394.87C173.346 394.87 166.519 401.697 166.519 410.118ZM143.506 316.473C151.927 316.587 158.66 323.506 158.547 331.926C158.433 340.347 151.515 347.081 143.094 346.967C134.674 346.854 127.94 339.935 128.054 331.515C128.167 323.094 135.086 316.36 143.506 316.473ZM139.12 192.817C139.12 201.238 145.947 208.065 154.368 208.065C162.789 208.065 169.616 201.238 169.616 192.817C169.616 184.396 162.789 177.569 154.368 177.569C145.947 177.569 139.12 184.395 139.12 192.817Z" stroke="#E4D9D9" style="stroke:#E4D9D9;stroke:color(display-p3 0.8929 0.8513 0.8513);stroke-opacity:1;" stroke-width="12" stroke-miterlimit="10" stroke-linecap="round" stroke-linejoin="round"/>
</svg>
